<?xml version="1.0" encoding="iso-8859-1"?>
<!-- Generator: Adobe Illustrator 19.0.0, SVG Export Plug-In . SVG Version: 6.00 Build 0)  -->
<svg version="1.1" id="Layer_1" xmlns="http://www.w3.org/2000/svg" xmlns:xlink="http://www.w3.org/1999/xlink" x="0px" y="0px"
	 viewBox="0 0 512 512" style="enable-background:new 0 0 512 512;" xml:space="preserve">
<path style="fill:#FF90C2;" d="M394.32,138.072L293.784,17.674c-19.693-23.584-55.919-23.546-75.581,0.001L117.677,138.074
	c-7.377,8.836-11.44,20.042-11.44,31.553v323.911c0,10.196,8.266,18.462,18.462,18.462h262.602c10.196,0,18.462-8.266,18.462-18.462
	V169.627C405.763,158.113,401.699,146.906,394.32,138.072z M256,220.644c-30.186,0-54.744-24.558-54.744-54.744
	s24.558-54.744,54.744-54.744s54.744,24.558,54.744,54.744S286.186,220.644,256,220.644z"/>
<path style="fill:#FF52A0;" d="M394.32,138.072L293.784,17.674C283.941,5.887,269.969,0,256,0v111.155
	c30.186,0,54.744,24.558,54.744,54.744S286.186,220.644,256,220.644V512h131.301c10.196,0,18.462-8.266,18.462-18.462V169.627
	C405.763,158.113,401.699,146.906,394.32,138.072z"/>
<g>
	<path style="fill:#2586FD;" d="M309.791,447.221H189.477c-10.196,0-18.462-8.266-18.462-18.462
		c0-10.196,8.266-18.462,18.462-18.462h120.314c10.196,0,18.462,8.266,18.462,18.462
		C328.252,438.955,319.986,447.221,309.791,447.221z"/>
	<path style="fill:#2586FD;" d="M232.056,382.443h-42.579c-10.196,0-18.462-8.266-18.462-18.462
		c0-10.196,8.266-18.462,18.462-18.462h42.579c10.196,0,18.462,8.266,18.462,18.462
		C250.518,374.177,242.253,382.443,232.056,382.443z"/>
</g>
<path style="fill:#3A4DE2;" d="M309.791,410.297H256v36.924h53.791c10.196,0,18.462-8.266,18.462-18.462
	C328.252,418.563,319.986,410.297,309.791,410.297z"/>
<g>
</g>
<g>
</g>
<g>
</g>
<g>
</g>
<g>
</g>
<g>
</g>
<g>
</g>
<g>
</g>
<g>
</g>
<g>
</g>
<g>
</g>
<g>
</g>
<g>
</g>
<g>
</g>
<g>
</g>
</svg>
